<?xml version="1.0" encoding="utf-8"?>
<!-- Generator: Adobe Illustrator 21.0.0, SVG Export Plug-In . SVG Version: 6.00 Build 0)  -->
<svg version="1.1" id="Layer_1" xmlns="http://www.w3.org/2000/svg" xmlns:xlink="http://www.w3.org/1999/xlink" x="0px" y="0px"
	 width="2048px" height="2048px" viewBox="0 0 2048 2048" enable-background="new 0 0 2048 2048" xml:space="preserve">
<path d="M909.5,1118.4h283.3h2.8c62.6,0,124.2-52.3,137.7-114.9l130.6-634.2c13.5-62.6-26.4-113.3-88.9-113.3h-371.4
	c-62.6,0-124.2,50.6-137.7,113.2l-73.2,338.5l214.7-30.3l41.9-194.7h182.6l-107.7,440.7H859.1h-0.4c-62.6,0-124.2,50.6-137.7,113.2
	l-136.8,640.6c-13.5,62.6,26.4,114.9,88.9,114.9H1155h0l50.4-226.6H816.3l94.8-447H909.5z"/>
</svg>
