<?xml version="1.0" encoding="utf-8"?>
<!-- Generator: Adobe Illustrator 21.0.0, SVG Export Plug-In . SVG Version: 6.00 Build 0)  -->
<svg version="1.1" id="Layer_1" xmlns="http://www.w3.org/2000/svg" xmlns:xlink="http://www.w3.org/1999/xlink" x="0px" y="0px"
	 width="2048px" height="2048px" viewBox="0 0 2048 2048" enable-background="new 0 0 2048 2048" xml:space="preserve">
<path d="M1753.3,1568.7c0,0-169.2,4.5-338.8-142.9c26-59.1,40.5-124.4,40.5-192.9c0-235.5-170.2-432-394.1-472.9
	C1008,515.8,972.5,256,972.5,256s-36.4,260.4-89.9,504.9c-221.5,42.9-389.2,238.2-389.2,472c0,33.9,3.6,67.1,10.3,99.1
	c-97,95.2-194.9,243.4-209,460.1c0,0,94.2-151.8,291.1-276c87.5,119.7,229,197.7,388.3,197.7c133.6,0,254.6-54.8,341.8-143
	C1434.4,1616.1,1584.4,1634.9,1753.3,1568.7z M974.2,1660.5c-140,0-264.5-67.6-342.5-171.9c76.8-43.1,167-80.8,271.2-104.7
	l-194.3-194.3c0,0-73.2,29.6-158.2,100.1c-2.5-18.6-3.9-37.6-3.9-56.9c0-199.8,137.7-367.9,323.1-414.7
	c-28.5,121.9-61,234.1-95,300.4l199.8,193.5l194-194.3l-0.8-0.8c-33.8-66.7-65.9-178.6-94-300c188,45,328.2,214.3,328.2,415.8
	c0,54.2-10.2,106-28.7,153.8c-49.5-50.9-97.9-116-140.8-199.3L1038,1381.7c0,0,84.3,98,225.2,166.1
	C1187,1617.7,1085.5,1660.5,974.2,1660.5z"/>
</svg>
