<?xml version="1.0" encoding="utf-8"?>
<!-- Generator: Adobe Illustrator 21.0.0, SVG Export Plug-In . SVG Version: 6.00 Build 0)  -->
<svg version="1.1" id="Layer_1" xmlns="http://www.w3.org/2000/svg" xmlns:xlink="http://www.w3.org/1999/xlink" x="0px" y="0px"
	 width="2048px" height="2048px" viewBox="0 0 2048 2048" enable-background="new 0 0 2048 2048" xml:space="preserve">
<path d="M1376.7,256h-371.4c-62.6,0-124.2,50.7-137.7,113.3l-180.3,820.4l1.4-0.2l-1.1,1l-105.1,488.2
	c-13.5,62.6,26.4,113.3,88.9,113.3h371.4c62.6,0,124.2-50.7,137.7-113.3l80.9-376l57.4-8.1l69.8-320.3l-402.3,56.5l-69.8,320.3
	l124.2-17.4l-49.9,231.8H814.5L1051,482.6h176.3l-45.6,212.2l220.8-31l63.3-294.5C1479.1,306.7,1439.3,256,1376.7,256z"/>
</svg>
