<?xml version="1.0" encoding="utf-8"?>
<!-- Generator: Adobe Illustrator 21.0.0, SVG Export Plug-In . SVG Version: 6.00 Build 0)  -->
<svg version="1.1" id="Layer_2" xmlns="http://www.w3.org/2000/svg" xmlns:xlink="http://www.w3.org/1999/xlink" x="0px" y="0px"
	 width="2048px" height="2048px" viewBox="0 0 2048 2048" enable-background="new 0 0 2048 2048" xml:space="preserve">
<g>
	<path d="M217.3,357.9L824.5,965h-31.3c-229,0-488.3,127.6-488.3,414.7c0,279.7,252.1,405.8,476.8,412v0.3H1571v-113.3H781.8
		c-165.2,0-352.1-92-352.1-299.1s187-299.1,352.1-299.1l852.9,3.5v0.3c196.5,0,309.2-105.7,309.2-237.8
		c0-75.1-46.7-135.7-117.5-176.3c70.8-40.6,117.5-99.6,117.5-174.6c0-132.1-112.7-239.1-309.2-239.1V256H934v658.3L275.7,256
		l-171.6,0v787.5h113.3V357.9z M1047.2,369.3h587.5c135.7,0,196.5,57.8,196.5,126.5c0,54.6-60.9,117.7-137,117.7h-647.1V369.3z
		 M1047.2,726.7h644.4c78.8,0,139.7,64.7,139.7,120c0,66.3-60.9,124.2-186.1,124.2h-598V726.7z"/>
</g>
</svg>
