<?xml version="1.0" encoding="utf-8"?>
<!-- Generator: Adobe Illustrator 21.0.0, SVG Export Plug-In . SVG Version: 6.00 Build 0)  -->
<svg version="1.1" id="Layer_1" xmlns="http://www.w3.org/2000/svg" xmlns:xlink="http://www.w3.org/1999/xlink" x="0px" y="0px"
	 width="2048px" height="2048px" viewBox="0 0 2048 2048" enable-background="new 0 0 2048 2048" xml:space="preserve">
<path d="M1374.9,256h-371.4c-62.6,0-124.2,50.6-137.7,113.2l-73.2,338.5l214.7-30.3l41.9-194.7h182.6l-107.7,440.7H809.3
	l-44.6,195.1h327.3l-99.5,447H816.3l52.9-246l-214.7,30.4l-70.3,327.4c-13.5,62.6,26.4,114.9,88.9,114.9h371.4
	c62.6,0,124.2-52.3,137.7-114.9l141-651.8l-131.3-53.5l162.6-92.6l109.4-509.9C1477.3,306.7,1437.5,256,1374.9,256z"/>
</svg>
