<?xml version="1.0" encoding="utf-8"?>
<!-- Generator: Adobe Illustrator 21.0.0, SVG Export Plug-In . SVG Version: 6.00 Build 0)  -->
<svg version="1.1" id="Layer_1" xmlns="http://www.w3.org/2000/svg" xmlns:xlink="http://www.w3.org/1999/xlink" x="0px" y="0px"
	 width="2048px" height="2048px" viewBox="0 0 2048 2048" enable-background="new 0 0 2048 2048" xml:space="preserve">
<g>
	<circle cx="1190.7" cy="1024.8" r="128"/>
	<path d="M1406.4,492.3c1.1,0,273.4,296.7,412.7,448.5h100.3l-381.6-684H843.6c-384,0-715,365.2-715,741.5h741.8
		C886.4,716.2,1120.3,492.3,1406.4,492.3z"/>
	<path d="M1406.4,1555.7c-286.1,0-519.9-223.9-535.9-506H128.7c0,376.3,331,741.5,715,741.5h694.1l381.6-684h-100.3
		C1679.8,1259,1407.5,1555.7,1406.4,1555.7z"/>
	<path d="M1686,997l-404.7-408.8c-164.5,46.5-291.4,182.8-324.2,352.6h66.6c30.9-98.6,113.7-174.3,216.5-194.9L1377.8,997H1686z"/>
	<path d="M1281.3,1467.8l407-416.8H1379l-138.8,255.8c-103.9-20.8-187.4-97.9-217.5-198.1h-66.9
		C986.7,1281.6,1114.7,1420.8,1281.3,1467.8z"/>
</g>
</svg>
