<?xml version="1.0" encoding="utf-8"?>
<!-- Generator: Adobe Illustrator 21.0.0, SVG Export Plug-In . SVG Version: 6.00 Build 0)  -->
<svg version="1.1" id="Layer_1" xmlns="http://www.w3.org/2000/svg" xmlns:xlink="http://www.w3.org/1999/xlink" x="0px" y="0px"
	 width="2048px" height="2048px" viewBox="0 0 2048 2048" style="enable-background:new 0 0 2048 2048;" xml:space="preserve">
<path d="M1352.3,256c-122,0-343.2,0-343.2,0l-0.9,1.6c-62.6,0-125.3,51.5-138.7,114.1C859.8,417.6,749.6,924,749.6,924l159.4,91.9
	l-195,80.3l-124.7,582.5h0.2c-13.5,63,26.4,113.3,88.9,113.3h346.7c0,0,137.2,2.9,169.4-147.4c132.3-618,132.3-616.4,132.3-616.4
	l-128.4-54l159.6-91.5c0,0,76.9-363.3,98.6-465.8C1478.2,314.5,1418.6,256,1352.3,256z M992.4,1565.4H822.8l81.8-379.1l175.3-27.1
	L992.4,1565.4z M1148.9,853.5l-175.3,25l87.5-408.4h169.6L1148.9,853.5z"/>
</svg>
