<?xml version="1.0" encoding="utf-8"?>
<!-- Generator: Adobe Illustrator 21.0.0, SVG Export Plug-In . SVG Version: 6.00 Build 0)  -->
<svg version="1.1" id="Layer_1" xmlns="http://www.w3.org/2000/svg" xmlns:xlink="http://www.w3.org/1999/xlink" x="0px" y="0px"
	 width="2048px" height="2048px" viewBox="0 0 2048 2048" enable-background="new 0 0 2048 2048" xml:space="preserve">
<path d="M1364.5,256c-122,0-460.3,0-460.3,0L574.8,1792h462.4c0,0,137.2-0.1,169.4-150.5c132.3-618,132.3-618,132.3-618l-128.4-54.8
	l159.6-91.8c0,0,76.9-360.5,98.6-462.9C1490.3,311.6,1430.8,256,1364.5,256z M1003.4,1578H833.8l81.8-382.2l175.3-25.6L1003.4,1578z
	 M1161,850.4l-175.3,26.5l87.5-406.9h169.6L1161,850.4z"/>
</svg>
