<?xml version="1.0" encoding="utf-8"?>
<!-- Generator: Adobe Illustrator 21.0.0, SVG Export Plug-In . SVG Version: 6.00 Build 0)  -->
<svg version="1.1" id="Layer_1" xmlns="http://www.w3.org/2000/svg" xmlns:xlink="http://www.w3.org/1999/xlink" x="0px" y="0px"
	 width="2048px" height="2048px" viewBox="0 0 2048 2048" enable-background="new 0 0 2048 2048" xml:space="preserve">
<g>
	<path d="M1039.5,256c-39.4,0-193.6,270.7-407.8,991.2c-74.9,252-114.6,544.8-84.2,544.8c30.5,0,425.8-573.5,619.3-573.5
		c141.5,0,295.7,501.8,331.5,501.8c32.3,0-4.5-224.1-36.7-367.5C1392.3,1044.9,1132.7,256,1039.5,256z M1106.1,984l16.2,106.3
		l-86-65.4l-86,65.4L966.5,984L871,928.1l106.3-15.5l58.9-386l58.9,386l106.3,15.5L1106.1,984z"/>
	<path d="M1165.3,1292.1c-13.1,0.6-52.8,9.9-136.5,81.8c68.5-0.2,134.9-5.4,198.2-14.9C1190.1,1304.4,1169.2,1293.7,1165.3,1292.1z"
		/>
	<path d="M1278.8,531.4c16,40.7,32.7,84.9,49.9,132.6c73.5,203.3,147.8,443.2,189.9,610.9c172.5-79.5,282.5-199.6,282.5-334.1
		C1801.1,751.2,1582.8,590.2,1278.8,531.4z"/>
	<path d="M561.1,1226.2c100.2-336.9,182.7-560.1,241-700.7c-321.1,53.2-555.2,219-555.2,415.3c0,138.6,116.7,262,298.4,341.3
		C550.5,1263,555.7,1244.3,561.1,1226.2z"/>
</g>
</svg>
