<?xml version="1.0" encoding="utf-8"?>
<!-- Generator: Adobe Illustrator 21.0.0, SVG Export Plug-In . SVG Version: 6.00 Build 0)  -->
<svg version="1.1" id="Layer_1" xmlns="http://www.w3.org/2000/svg" xmlns:xlink="http://www.w3.org/1999/xlink" x="0px" y="0px"
	 width="2048px" height="2048px" viewBox="0 0 2048 2048" enable-background="new 0 0 2048 2048" xml:space="preserve">
<g>
	<ellipse cx="1074.7" cy="1647.3" rx="75.6" ry="144.7"/>
	<path d="M1216.2,1502.5c0-184-76.4-259-163.2-259c-82.3,0-140.4,75.9-140.4,242.5c0,100.3,22.2,194,30.7,238
		c-1-12.6,8.7-282.5,118.5-282.5c66,0,132.9,107.1,132.9,243.9c0,22.6-0.9,43.4-3.7,64.2C1203.1,1699.5,1216.2,1565.5,1216.2,1502.5
		z"/>
	<path d="M988.5,1115.5l5.7-0.2c17.3-7.4,36.1-11.4,56.3-11.4c8.4,0,16.6,0.7,24.5,2c12.8-55.4,91.7-449.1-176.9-717.7l0.1-0.3
		c-6.7,8.4-13.4,17.1-20.2,26.2l0,0C1126.3,662.5,988.5,1115.5,988.5,1115.5z"/>
	<path d="M1127.6,1126.4c30.7,19.5,56.2,51,76.2,91.4c25.7-85.6,128.8-514.4-244-901.9c-7.4,8.1-15.2,16.8-23.2,26.1
		C1219.2,637.2,1168.2,979.5,1127.6,1126.4z"/>
	<path d="M938.4,1156c-34.5-7-177.7-49.4-177.7-267.3c0-247.7,73-378.1,73-378.1l-14.9-9.7c-81.4,132.2-154.6,314-154.6,550.7
		c0,371.8,106,525.6,208.4,651.6c-18.9-59.5-29.8-129.3-29.8-203.9C842.9,1352.6,875.7,1224.2,938.4,1156z"/>
	<path d="M1383.8,1051.7c0-522.8-367.6-796.5-368.4-795.7c-5,5.5-10.8,11.7-17.3,18.6c429.8,440.8,282.4,934.9,241.2,1046.5
		c12.2,53.6,18.5,114.2,18.5,178.3c0,104.2-21.2,198.9-55.8,269.5C1310.1,1632.3,1383.8,1362.4,1383.8,1051.7z"/>
</g>
</svg>
